P2
# Created by GIMP version 2.10.34 PNM plug-in
4 4
65535
3510
13714
24067
34470
13777
24170
34567
41349
24151
34543
41312
51736
34529
44843
51672
62176
