P3
# Created by GIMP version 2.10.34 PNM plug-in
4 4
65535
45
65477
65535
3
65496
58525
92
65535
48210
0
65535
34565
34
65535
58607
0
65432
48324
22
65535
38055
0
65535
27472
0
65487
48372
66
65479
37818
20
65480
27666
127
65535
17237
117
65535
37934
0
65480
27498
103
65535
17257
0
65535
7003
